# xmcd CD database file
#
# Track frame offsets:
#	150
#	48804
#	85862
#	124241
#	165336
#	186265
#	218296
#
# Disc length: 3567 seconds
#
# Revision: 0
# Processed by: cddbd v1.4PL0 Copyright (c) Steve Scherf et al.
# Submitted via: CDex 1.50
#
DISCID=4e0ded07
DTITLE=Phil Woods and John Coates - Giants at Play
DYEAR=1900
DGENRE=Jazz
TTITLE0=Embraceable You
TTITLE1=Much too Much
TTITLE2=An Affair to Remember
TTITLE3=How Can We Be Wrong
TTITLE4=Starting from the Back
TTITLE5=Freak of the Week
TTITLE6=Cherokee
EXTD=
EXTT0=
EXTT1=
EXTT2=
EXTT3=
EXTT4=
EXTT5=
EXTT6=
PLAYORDER=
